HIERARCHY
ROOT Hips
{
  OFFSET 54.8796 86.3125 18.5085
  CHANNELS 6 Xposition Yposition Zposition Zrotation Xrotation Yrotation
  JOINT spine
  {
    OFFSET 0 6.84637 0.3937
    CHANNELS 3 Zrotation Xrotation Yrotation
    JOINT spine1
    {
      OFFSET 0 9.49621 0
      CHANNELS 3 Zrotation Xrotation Yrotation
      JOINT spine2
      {
        OFFSET 0 9.09909 0
        CHANNELS 3 Zrotation Xrotation Yrotation
        JOINT Neck
        {
          OFFSET 0 23.3612 1.11378
          CHANNELS 3 Zrotation Xrotation Yrotation
          JOINT Head
          {
            OFFSET 0 7.05802 0
            CHANNELS 3 Zrotation Xrotation Yrotation
            End Site
            {
              OFFSET 0 17.0844 -5.63419
            }
          }
        }
        JOINT RightShoulder
        {
          OFFSET -3.83136 9.82631 -0.533491
          CHANNELS 3 Zrotation Xrotation Yrotation
          JOINT RightArm
          {
            OFFSET 0 12.8881 0
            CHANNELS 3 Zrotation Xrotation Yrotation
            JOINT RightArmRoll
            {
              OFFSET 0 6.50617 0
              CHANNELS 3 Zrotation Xrotation Yrotation
              JOINT RightForeArm
              {
                OFFSET 0 18.9501 0
                CHANNELS 3 Zrotation Xrotation Yrotation
                JOINT RightForeArmRoll
                {
                  OFFSET 0 7.30093 0
                  CHANNELS 3 Zrotation Xrotation Yrotation
                  JOINT RightHand
                  {
                    OFFSET 0 14.6514 0
                    CHANNELS 3 Zrotation Xrotation Yrotation
                    End Site
                    {
                      OFFSET 0 0 0
                    }
                  }
                }
              }
            }
          }
        }
        JOINT LeftShoulder
        {
          OFFSET 3.83136 9.82631 -0.533491
          CHANNELS 3 Zrotation Xrotation Yrotation
          JOINT LeftArm
          {
            OFFSET 0 12.8881 0
            CHANNELS 3 Zrotation Xrotation Yrotation
            JOINT LeftArmRoll
            {
              OFFSET 0 6.50617 0
              CHANNELS 3 Zrotation Xrotation Yrotation
              JOINT LeftForeArm
              {
                OFFSET 0 18.9501 0
                CHANNELS 3 Zrotation Xrotation Yrotation
                JOINT LeftForeArmRoll
                {
                  OFFSET 0 7.30092 0
                  CHANNELS 3 Zrotation Xrotation Yrotation
                  JOINT LeftHand
                  {
                    OFFSET 0 14.6514 0
                    CHANNELS 3 Zrotation Xrotation Yrotation
                    End Site
                    {
                      OFFSET 0 0 0
                    }
                  }
                }
              }
            }
          }
        }
      }
    }
  }
  JOINT RightUpLeg
  {
    OFFSET -6.06837 -1.11278 -0.933477
    CHANNELS 3 Zrotation Xrotation Yrotation
    JOINT RightUpLegRoll
    {
      OFFSET 0 17.1796 0
      CHANNELS 3 Zrotation Xrotation Yrotation
      JOINT RightLeg
      {
        OFFSET 0 -21.2743 0
        CHANNELS 3 Zrotation Xrotation Yrotation
        JOINT RightLegRoll
        {
          OFFSET 0 21.3439 0
          CHANNELS 3 Zrotation Xrotation Yrotation
          JOINT RightFoot
          {
            OFFSET 0 17.7652 0
            CHANNELS 3 Zrotation Xrotation Yrotation
            JOINT RightToeBase
            {
              OFFSET 0 14.8508 0
              CHANNELS 3 Zrotation Xrotation Yrotation
              End Site
              {
                OFFSET 0.0062947 7.19214 -0.829004
              }
            }
          }
        }
      }
    }
  }
  JOINT LeftUpLeg
  {
    OFFSET 6.06837 -1.11278 -0.933477
    CHANNELS 3 Zrotation Xrotation Yrotation
    JOINT LeftUpLegRoll
    {
      OFFSET 0 17.1797 0
      CHANNELS 3 Zrotation Xrotation Yrotation
      JOINT LeftLeg
      {
        OFFSET 0 21.2742 0
        CHANNELS 3 Zrotation Xrotation Yrotation
        JOINT LeftLegRoll
        {
          OFFSET 0 21.5412 0
          CHANNELS 3 Zrotation Xrotation Yrotation
          JOINT LeftFoot
          {
            OFFSET 0 17.5679 0
            CHANNELS 3 Zrotation Xrotation Yrotation
            JOINT LeftToeBase
            {
              OFFSET 0 14.8508 0
              CHANNELS 3 Zrotation Xrotation Yrotation
              End Site
              {
                OFFSET -0.0282102 7.19213 -0.829005
              }
            }
          }
        }
      }
    }
  }
}
MOTION
Frames: 4
Frame Time: 0.00208333
51.8165 86.6321 7.92804 0.389279 -2.07937 1.07323 1.17382 -1.80625 0.984834 2.36343 0.408582 1.85391 2.34206 2.05249 1.81492 -17.3313 7.84153 -2.15252 12.3961 9.19729 -6.592 51.7355 -8.86916 -5.37201 99.6625 14.839 26.7747 -8.51971e-006 -4.07063e-006 -3.91486e-006 11.4873 6.37152 -1.27936 -4.17534e-006 -7.06271e-007 -3.00269 8.02886 -4.95147 0.697692 -71.7211 -7.20666 4.90239 -94.2275 21.0366 -30.7653 -6.54774e-006 -1.65881e-005 5.83263e-006 -11.6692 8.51665 0.475436 1.81949e-005 6.23561e-006 2.99998 -8.02888 -4.9514 -0.697667 178.455 14.0305 -1.72141 180 -1.52557e-005 178.844 176.694 24.3076 -179.911 -1.49799e-006 -6.72004e-007 0.580173 -22.6331 71.4378 22.9967 8.13518 25.2327 -3.48717 -177.641 10.4489 0.311641 4.54188e-006 -4.6773e-006 -0.918698 -0.850473 -24.7282 0.818582 2.67413e-006 -6.3935e-006 -0.561845 23.6709 75.1739 -27.6806 -8.13322 25.2328 3.48634 
51.8078 86.6401 7.95383 0.392722 -2.07368 1.08365 1.17378 -1.80845 0.985109 2.36279 0.404194 1.85451 2.34142 2.04811 1.81554 -17.3457 7.80424 -2.15526 12.4078 9.18609 -6.59163 51.7306 -8.86879 -5.37167 99.6789 14.8903 26.7471 -8.51971e-006 -4.07063e-006 -3.91486e-006 11.4911 6.37936 -1.28086 -4.17534e-006 -7.06271e-007 -3.00269 8.02886 -4.95147 0.697692 -71.7199 -7.20886 4.90343 -94.2473 21.0714 -30.7119 -6.54774e-006 -1.65881e-005 5.83263e-006 -11.6957 8.55071 0.484058 1.81949e-005 6.23561e-006 2.99998 -8.02888 -4.9514 -0.697667 178.453 14.0355 -1.72211 180 -1.52557e-005 178.844 176.696 24.3065 -179.911 -1.49799e-006 -6.72004e-007 0.580175 -22.632 71.4373 22.9961 8.13518 25.2327 -3.48717 -177.647 10.4555 0.319024 4.54188e-006 -4.6773e-006 -0.918698 -0.848215 -24.7216 0.819613 2.67413e-006 -6.3935e-006 -0.561845 23.6595 75.167 -27.6686 -8.13322 25.2328 3.48634 
51.8099 86.6375 7.94786 0.396259 -2.06773 1.09431 1.17371 -1.81071 0.985372 2.36203 0.39968 1.8551 2.34067 2.04359 1.81615 -17.3595 7.76684 -2.15806 12.4192 9.17436 -6.5911 51.7265 -8.86864 -5.3715 99.6947 14.9422 26.7194 -8.51971e-006 -4.07063e-006 -3.91486e-006 11.4948 6.38699 -1.28234 -4.17534e-006 -7.06271e-007 -3.00269 8.02886 -4.95147 0.697692 -71.7176 -7.21088 4.90433 -94.2688 21.1064 -30.6583 -6.54774e-006 -1.65881e-005 5.83263e-006 -11.7219 8.58476 0.492669 1.81949e-005 6.23561e-006 2.99998 -8.02888 -4.9514 -0.697667 178.451 14.0407 -1.72277 180 -1.52557e-005 178.844 176.697 24.3051 -179.912 -1.49799e-006 -6.72004e-007 0.580177 -22.6305 71.4366 22.9952 8.13518 25.2327 -3.48717 -177.653 10.4625 0.326902 4.54188e-006 -4.6773e-006 -0.918698 -0.845698 -24.7148 0.820755 2.67413e-006 -6.3935e-006 -0.561845 23.6475 75.1598 -27.6562 -8.13322 25.2328 3.48634 
51.8082 86.6402 7.95086 0.39986 -2.0616 1.10513 1.17363 -1.81301 0.985626 2.36119 0.395076 1.85566 2.33983 2.03899 1.81673 -17.3728 7.72936 -2.16092 12.4303 9.16225 -6.59045 51.7228 -8.86865 -5.37145 99.7101 14.9946 26.6918 -8.51971e-006 -4.07063e-006 -3.91486e-006 11.4986 6.39449 -1.28382 -4.17534e-006 -7.06271e-007 -3.00269 8.02886 -4.95147 0.697692 -71.7144 -7.21276 4.90515 -94.2916 21.1417 -30.6046 -6.54774e-006 -1.65881e-005 5.83263e-006 -11.748 8.61881 0.501273 1.81949e-005 6.23561e-006 2.99998 -8.02888 -4.9514 -0.697667 178.449 14.0461 -1.72339 180 -1.52557e-005 178.844 176.699 24.3035 -179.913 -1.49799e-006 -6.72004e-007 0.580179 -22.6288 71.4357 22.9941 8.13518 25.2327 -3.48717 -177.66 10.4696 0.335125 4.54188e-006 -4.6773e-006 -0.918698 -0.843001 -24.7076 0.821976 2.67413e-006 -6.3935e-006 -0.561845 23.6351 75.1524 -27.6434 -8.13322 25.2328 3.48634 
